<svg id="Capa_1" enable-background="new 0 0 512 512" height="512" viewBox="0 0 512 512" width="512" xmlns="http://www.w3.org/2000/svg"><path d="m500.7 46.07-114.418-32.154v89.353l114.418-32.155c12.651-3.555 12.651-21.489 0-25.044z" fill="#fc6b55"/><path d="m500.037 45.883-13.652-3.837c-.7.331-1.449.612-2.248.837l-97.855 27.499v32.885l113.755-31.968c12.839-3.607 12.839-21.807 0-25.416z" fill="#fc534e"/><path d="m386.282 196.156c-4.266 0-7.725-3.459-7.725-7.725v-180.706c0-4.266 3.459-7.725 7.725-7.725s7.725 3.459 7.725 7.725v180.706c0 4.267-3.459 7.725-7.725 7.725z" fill="#a64c31"/><path d="m467.832 173.475h-102.505c-4.418 0-8 3.582-8 8v330.525h110.505c4.418 0 8-3.582 8-8v-322.525c0-4.418-3.582-8-8-8z" fill="#fa9801"/><path d="m357.327 258.301h-110.505c-4.418 0-8 3.582-8 8v245.699h118.505z" fill="#fba615"/><path d="m238.822 343.127h-110.505c-4.418 0-8 3.582-8 8v160.873h118.505z" fill="#fcb143"/><path d="m120.317 427.953h-110.505c-4.418 0-8 3.582-8 8v68.047c0 4.418 3.582 8 8 8h110.505z" fill="#fbbe66"/><path d="m467.699 173.475h-37.393v284.635c0 4.492-3.641 8.133-8.133 8.133h-64.847v45.757h110.372c4.492 0 8.133-3.641 8.133-8.133v-322.259c.001-4.492-3.641-8.133-8.132-8.133z" fill="#f88604"/><path d="m238.822 466.242h118.505v45.758h-118.505z" fill="#fa9801"/><path d="m1.812 466.242v37.625c0 4.492 3.641 8.133 8.133 8.133h110.372v-45.758z" fill="#fcb143"/><path d="m120.317 466.242h118.505v45.758h-118.505z" fill="#fba615"/></svg>