<svg id="Flat" height="512" viewBox="0 0 512 512" width="512" xmlns="http://www.w3.org/2000/svg"><g><circle cx="232" cy="296.005" fill="#4dccff" r="192"/><path d="m232 104.005q-4.647 0-9.241.221l10.947 26.274a138.581 138.581 0 0 0 128.26 85.508h44.564c-30.392-66.043-97.195-112.003-174.53-112.003z" fill="#25b1fa"/><g fill="#e1f6ff"><path d="m226.455 428.678-34.455-20.673-64.949 48.712a190.885 190.885 0 0 0 104.949 31.288 193 193 0 0 0 23.392-1.418l-20.845-48.638a20 20 0 0 0 -8.092-9.271z"/><path d="m96 260.005a20 20 0 0 1 20-20h31.639a20 20 0 0 0 17.889-11.056l11.562-23.123a20 20 0 0 0 -4.719-24l-49.759-43.539a192.029 192.029 0 0 0 -77.73 200.832l51.118-51.114z"/><path d="m361.657 334.443a20 20 0 0 0 -20.038-1.247l-21.619 10.809h-28.223a19.777 19.777 0 0 0 -19.777 19.777 19.776 19.776 0 0 0 10.933 17.689l7.556 3.779a19.776 19.776 0 0 1 10.549 21.567l-2.076 10.376a19.778 19.778 0 0 0 10.549 21.568l31.055 15.527a192.644 192.644 0 0 0 77.36-110.283h-41.926z"/></g><path d="m325.16 165.875-24.968-18.726a10 10 0 0 0 -9.163-1.487l-38.1 12.7a10 10 0 0 0 -6.416 6.613l-21 70a10 10 0 0 0 1.77 9.12l20.914 26.143a10 10 0 0 0 15.618 0l21.711-27.138a10 10 0 0 1 6.394-3.653l41.1-5.872a10 10 0 0 0 8.287-12.325l-12.45-49.8a10 10 0 0 0 -3.697-5.575z" fill="#e1f6ff"/><path d="m400 200.005 24-72-142.935-72-41.065 48 8.475 20.339a122.947 122.947 0 0 0 113.491 75.661z" fill="#fdbf67"/><path d="m464 170.146v-42.141h8l-88-104-136-.005 88 104.005h112v42.141a15.993 15.993 0 0 0 -8 13.859v32h32v-32a15.993 15.993 0 0 0 -8-13.859z" fill="#fb8656"/><path d="m104 24.005-14.142 25.858-25.858 14.142 25.858 14.142 14.142 25.858 14.142-25.858 25.858-14.142-25.858-14.142z" fill="#fdbf67"/><path d="m432 408.005-14.142 25.858-25.858 14.142 25.858 14.142 14.142 25.858 14.142-25.858 25.858-14.142-25.858-14.142z" fill="#fdbf67"/><g fill="#e1f6ff"><path d="m368 240.005h16v16h-16z"/><path d="m136 328.005h16v16h-16z"/></g></g></svg>